HIERARCHY
ROOT pelvis
{
  OFFSET 0 100 0
  CHANNELS 6 Xposition Yposition Zposition Zrotation Xrotation Yrotation
  JOINT pelvis_right_femur
  {
    OFFSET -10.78128 -3.44521 -0.5502486
    CHANNELS 3 Zrotation Xrotation Yrotation
    JOINT right_femur_tibia
    {
      OFFSET -0.8047443 -44.0398 -0.1307829
      CHANNELS 3 Zrotation Xrotation Yrotation
      JOINT right_tibia_foot
      {
        OFFSET 3.006224 -47.83518 -5
        CHANNELS 3 Zrotation Xrotation Yrotation
        End Site
        {
          OFFSET 0 -5 15
        }
      }
    }
  }
  JOINT pelvis_left_femur
  {
    OFFSET 10.78128 -3.44521 -0.5502486
    CHANNELS 3 Zrotation Xrotation Yrotation
    JOINT left_femur_tibia
    {
      OFFSET 0.8047443 -44.0398 -0.1307829
      CHANNELS 3 Zrotation Xrotation Yrotation
      JOINT left_tibia_foot
      {
        OFFSET -4.370144 -48.10324 -4.275266
        CHANNELS 3 Zrotation Xrotation Yrotation
        End Site
        {
          OFFSET 0 -5 15
        }
      }
    }
  }
  JOINT pelvis_spine1
  {
    OFFSET 0 6.468898 -3.129235
    CHANNELS 3 Zrotation Xrotation Yrotation
    JOINT spine1
    {
      OFFSET 0 23.15396 4.99043
      CHANNELS 3 Zrotation Xrotation Yrotation
      JOINT spine2
      {
        OFFSET 0 20.79997 -5.064912
        CHANNELS 3 Zrotation Xrotation Yrotation
        JOINT neck
        {
          OFFSET 0 14.38658 9.616178
          CHANNELS 3 Zrotation Xrotation Yrotation
          End Site
          {
            OFFSET 0 20 0
          }
        }
      }
      JOINT right_manubrium
      {
        OFFSET -5.722621 16.35077 3.967754
        CHANNELS 3 Zrotation Xrotation Yrotation
        JOINT right_clavicle
        {
          OFFSET -13.16364 1.694482 -4.693211
          CHANNELS 3 Zrotation Xrotation Yrotation
          JOINT right_humerus
          {
            OFFSET -28.5034 -0.3100689 -2.792744
            CHANNELS 3 Zrotation Xrotation Yrotation
            JOINT right_radius
            {
              OFFSET -25.15693 0.02248979 -1.271978
              CHANNELS 3 Zrotation Xrotation Yrotation
              End Site
              {
                OFFSET -15 0 0
              }
            }
          }
        }
      }
      JOINT left_manubrium
      {
        OFFSET 5.722621 16.35077 3.967754
        CHANNELS 3 Zrotation Xrotation Yrotation
        JOINT left_clavicle
        {
          OFFSET 13.16364 1.694482 -4.693211
          CHANNELS 3 Zrotation Xrotation Yrotation
          JOINT left_humerus
          {
            OFFSET 29.39168 -1.063119 -2.237045
            CHANNELS 3 Zrotation Xrotation Yrotation
            JOINT left_radius
            {
              OFFSET 24.59957 -0.9528479 0.9047498
              CHANNELS 3 Zrotation Xrotation Yrotation
              End Site
              {
                OFFSET 15 -0 -0
              }
            }
          }
        }
      }
    }
  }
}
MOTION
Frames: 17
Frame Time: 0.0416666666667
0 103.5113 0 0.7842469 -1.451509 0.2036431 3.113897 -16.25717 7.077789 -0 37.12325 -0 -6.286663 -13.20631 -2.732129 -7.059622 6.542422 -21.22356 -0 4.660546 -0 7.657558 -17.72631 25.09811 -1.823849 -2.786996 5.095633 3.164327 10.44838 -7.378963 0.3505247 20.9785 7.453443 3.864885 -28.23425 8.766225 5.148183 -21.60693 12.63642 84.89484 36.74528 -16.5262 -0 0 15.68056 -9.746343 9.509029 7.580484 5.442997 -20.90346 -1.407522 -96.09551 22.47951 27.78393 0 0 -14.04283 11.58645 16.68069 0.4280538
0.4110072 103.359 1.595884 0.7978576 -1.461793 0.4304929 3.161781 -17.95062 7.120332 -0 38.03921 -0 -6.256694 -12.45967 -3.014084 -7.135042 8.365833 -21.40497 -0 5.567195 -0 7.556844 -18.11678 24.87745 -1.80655 -2.756471 4.971462 3.195867 10.49437 -7.547723 0.3537485 20.93581 7.465715 3.855985 -28.08415 8.736093 5.100824 -21.32642 12.60929 85.39488 36.54699 -17.2544 -0 0 15.11323 -9.895751 9.621899 7.496414 5.498316 -21.17626 -1.559673 -95.42911 22.47559 26.86096 0 0 -14.98462 11.53404 16.43904 0.4911673
0.6500896 102.8951 3.740911 0.4391784 -0.919102 0.6849955 3.641845 -23.77427 5.776276 -0 31.2227 -0 -6.675357 -10.60087 -3.379075 -6.429689 12.95413 -20.08883 -0 5.109244 -0 6.747979 -19.75565 22.92261 -1.902409 -2.649522 4.688917 3.310584 10.26484 -7.722801 0.3707098 21.01712 7.565322 3.912478 -28.01224 8.826799 5.222734 -20.70316 12.48906 85.8311 36.79019 -18.10385 -0 0 14.20195 -9.539886 9.472038 7.141111 5.620082 -21.30752 -1.561362 -94.79879 22.9496 25.59811 0 0 -15.8685 11.4735 16.34073 0.556292
0.7925583 102.1343 6.284911 0.1767528 -0.5616647 0.9504826 3.89822 -26.89087 4.78413 -0 25.82106 -0 -6.977177 -9.650813 -3.486974 -5.924583 15.15378 -19.00327 -0 4.504624 -0 6.127201 -20.63706 21.58543 -1.935217 -2.599137 4.486369 3.392254 10.18254 -7.895396 0.3755749 21.03742 7.626498 3.942003 -27.95516 8.868716 5.256497 -20.28838 12.42488 86.30948 36.82876 -18.8885 -0 0 13.47408 -9.392341 9.437939 6.907487 5.712862 -21.52358 -1.629092 -94.20736 23.13863 24.58232 0 0 -16.7293 11.51353 16.23285 0.5094404
0.86352 101.076 9.442611 -0.05172128 -0.4983342 1.239283 3.924514 -29.01224 3.535105 -0 20.61442 -0 -7.027003 -8.173612 -3.628719 -5.426823 16.688 -17.32125 -0 4.490539 -0 4.936387 -21.22486 19.85331 -1.984607 -2.528802 4.19128 3.513812 10.05614 -8.141441 0.3817746 21.07201 7.718501 3.988071 -27.89088 8.936436 5.310697 -19.69295 12.3319 86.99608 36.89841 -20.01251 -0 0 12.42519 -9.150337 9.373183 6.559975 5.848871 -21.82963 -1.716796 -93.37971 23.40427 23.13524 0 0 -17.93979 11.59583 16.10164 0.4131591
0.8949204 99.82513 13.27975 -0.193328 -0.7449862 1.559394 3.789188 -29.98606 2.370521 -0 16.90966 -0 -6.837087 -6.428997 -3.842445 -5.056803 17.55546 -15.48247 -0 5.533896 -0 3.440638 -21.3793 18.09792 -2.011242 -2.471661 3.921641 3.619953 9.983872 -8.392025 0.3858451 21.08198 7.793715 4.020747 -27.80479 8.979648 5.330106 -19.15252 12.25589 87.71468 36.86121 -21.137 -0 0 11.42045 -9.011823 9.362615 6.261226 5.973533 -22.17328 -1.838929 -92.52254 23.55609 21.71201 0 0 -19.19575 11.67758 15.93419 0.3187077
0.909228 98.49908 17.84253 -0.2665137 -1.246313 1.909404 3.605624 -30.12284 1.338061 -0 14.37982 -0 -6.482189 -4.492879 -4.149744 -4.773713 17.96795 -13.53961 -0 7.826568 -0 1.704873 -21.11484 16.33443 -2.028123 -2.406641 3.66286 3.710098 9.93761 -8.648616 0.3933603 21.07635 7.854365 4.039874 -27.65742 8.997891 5.329258 -18.60798 12.18176 88.45818 36.72664 -22.28006 -0 0 10.41668 -8.975813 9.399648 6.00045 6.088803 -22.53622 -1.993433 -91.58539 23.6495 20.20713 0 0 -20.5445 11.68249 15.6905 0.3131328
0.9219061 97.22946 23.11248 -0.2816914 -1.935457 2.274808 3.481535 -29.56747 0.5517821 -0 12.88212 -0 -6.047705 -2.583887 -4.538902 -4.553176 17.97194 -11.64514 -0 11.45699 -0 -0.1122679 -20.42062 14.70034 -2.027484 -2.341201 3.459287 3.763799 9.938513 -8.875915 0.4045467 21.04825 7.884418 4.036425 -27.44451 8.977001 5.297126 -18.14206 12.12248 89.12241 36.47487 -23.27566 -0 0 9.566165 -9.095346 9.502403 5.834898 6.172954 -22.87453 -2.173189 -90.67558 23.64807 18.81814 0 0 -21.82555 11.58007 15.37397 0.4319629
0.9406147 96.15332 29.02031 -0.249762 -2.76793 2.626255 3.501115 -28.34489 0.09652898 -0 12.24317 -0 -5.605806 -0.9006974 -4.986688 -4.358925 17.51125 -9.896853 -0 16.55184 -0 -1.895723 -19.26135 13.30821 -2.011896 -2.271939 3.340387 3.765654 9.983659 -9.040845 0.421935 21.00049 7.87398 4.005531 -27.15442 8.910052 5.236538 -17.79773 12.08043 89.60715 36.11889 -23.98278 -0 0 8.982809 -9.394244 9.670922 5.802248 6.210025 -23.13302 -2.362829 -89.87765 23.56845 17.68289 0 0 -22.89676 11.31942 14.98275 0.7339838
0.9639595 95.41188 35.43423 -0.1795776 -3.703203 2.91918 3.724704 -26.39586 0.06181224 -0 12.39359 -0 -5.228097 0.3273025 -5.45395 -4.158602 16.46062 -8.417045 -0 23.19779 -0 -3.517039 -17.6006 12.30207 -1.981964 -2.201932 3.338903 3.701903 10.07385 -9.10787 0.4461865 20.93581 7.814203 3.944291 -26.79381 8.793663 5.149046 -17.63557 12.06155 89.8122 35.68274 -24.25271 -0 0 8.795408 -9.884053 9.899162 5.939687 6.184706 -23.25681 -2.542476 -89.30065 23.42516 16.98197 0 0 -23.58599 10.87986 14.53442 1.243593
0.9809229 95.13428 42.15412 -0.08411258 -4.687389 3.095502 4.171985 -23.6201 0.5065948 -0 13.26276 -0 -4.990645 0.8440216 -5.877414 -3.92186 14.64625 -7.337211 -0 31.27126 -0 -4.837859 -15.43881 11.83504 -1.940956 -2.132495 3.477351 3.563634 10.20267 -9.048049 0.4778347 20.85971 7.700529 3.852719 -26.37294 8.629163 5.04028 -17.69781 12.06825 89.66339 35.19726 -23.97482 -0 0 9.100285 -10.55943 10.17217 6.270367 6.087236 -23.19815 -2.691 -89.03324 23.24533 16.85533 0 0 -23.74905 10.25057 14.04767 1.974035
0.9747177 95.39985 48.92945 0.01501974 -5.637575 3.09268 4.789419 -19.96102 1.393708 -0 14.65411 -0 -4.956861 0.4331805 -6.170163 -3.626375 11.91212 -6.747298 -0 40.15123 -0 -5.736324 -12.87983 12.0085 -1.89288 -2.065522 3.759906 3.351427 10.35977 -8.849583 0.5162674 20.77864 7.535283 3.734822 -25.9105 8.424114 4.917616 -17.99852 12.09991 89.14189 34.68952 -23.11617 -0 0 9.928182 -11.39265 10.46809 6.792648 5.917619 -22.93554 -2.791702 -89.12284 23.05206 17.3653 0 0 -23.31341 9.449287 13.54425 2.905625
0.9344162 96.18658 55.52274 0.08888413 -6.447272 2.862409 5.438432 -15.49057 2.528195 -0 16.13046 -0 -5.135298 -0.9511214 -6.240483 -3.257728 8.205929 -6.602149 -0 48.52956 -0 -6.161686 -10.17531 12.78109 -1.84331 -2.000939 4.163608 3.0786 10.5286 -8.526429 0.5601445 20.70008 7.329756 3.598947 -25.42809 8.192676 4.790877 -18.50426 12.15051 88.30226 34.17874 -21.75367 -0 0 11.21051 -12.33115 10.76092 7.470315 5.688824 -22.48524 -2.837412 -89.54763 22.86253 18.44591 0 0 -22.32325 8.519373 13.04222 3.988781
0.8696822 97.34178 61.79835 0.112077 -7.018895 2.392176 5.946795 -10.44336 3.586264 -0 17.06631 -0 -5.448301 -3.092212 -6.023312 -2.795541 3.644729 -6.677734 -0 54.65395 -0 -6.164366 -7.685746 13.93539 -1.798573 -1.936787 4.64277 2.769111 10.6894 -8.115596 0.6076483 20.63126 7.102254 3.456241 -24.9468 7.953067 4.670888 -19.14049 12.20988 87.25682 33.67921 -20.05605 -0 0 12.79307 -13.30554 11.02634 8.23869 5.424099 -21.89732 -2.831683 -90.22205 22.6886 19.91835 0 0 -20.92925 7.521303 12.55445 5.153608
0.815037 98.61211 67.76788 0.07728092 -7.305588 1.713548 6.202243 -5.139226 4.26588 -0 16.94292 -0 -5.761115 -5.592529 -5.502702 -2.202317 -1.509351 -6.668846 -0 57.0866 -0 -5.859972 -5.737874 15.17744 -1.763821 -1.869789 5.151042 2.446273 10.82611 -7.65776 0.6574457 20.57692 6.869769 3.315957 -24.4787 7.719982 4.5659 -19.82739 12.26803 86.1184 33.19967 -18.19885 -0 0 14.51326 -14.25845 11.25017 9.034868 5.14591 -21.22777 -2.784514 -91.04256 22.53875 21.58285 0 0 -19.30694 6.50416 12.0841 6.34309
0.817521 99.72239 73.55028 0.001134108 -7.328907 0.8904254 6.19535 0.1374304 4.438233 -0 15.68277 -0 -5.95159 -8.068708 -4.71652 -1.446515 -6.932671 -6.363553 -0 55.39308 -0 -5.364455 -4.488913 16.29199 -1.740931 -1.796737 5.663239 2.121522 10.93295 -7.177247 0.7094039 20.53771 6.639988 3.181458 -24.02147 7.49829 4.477805 -20.51779 12.31949 84.95137 32.73575 -16.28313 -0 0 16.27769 -15.17087 11.43216 9.827658 4.865545 -20.51093 -2.70645 -91.93846 22.41385 23.31419 0 0 -17.5703 5.484399 11.62177 7.538185
0.9191609 100.4529 79.29198 -0.08271836 -7.164678 1.813498e-05 5.976515 5.170019 4.165663 -0 13.73125 -0 -5.947582 -10.24707 -3.750359 -0.5469398 -12.28054 -5.729396 -0 50.16737 -0 -4.768046 -3.919112 17.20051 -1.728702 -1.715172 6.174986 1.794726 11.01316 -6.68105 0.7643933 20.51133 6.411812 3.05109 -23.56215 7.284669 4.402438 -21.19883 12.36306 83.77677 32.26837 -14.33718 -0 0 18.06311 -16.05779 11.58089 10.61664 4.583811 -19.75857 -2.6064 -92.87769 22.30564 25.06693 0 0 -15.76444 4.453031 11.14893 8.749783
